<?xml version="1.0" encoding="utf-8"?>
<!-- Generator: Adobe Illustrator 21.1.0, SVG Export Plug-In . SVG Version: 6.00 Build 0)  -->
<svg version="1.1" id="Layer_1" xmlns="http://www.w3.org/2000/svg" xmlns:xlink="http://www.w3.org/1999/xlink" x="0px" y="0px"
	 viewBox="0 0 251.9 247.7" style="enable-background:new 0 0 251.9 247.7;" xml:space="preserve">
<style type="text/css">
	.st0{fill:#1B4B9E;}
</style>
<path class="st0" d="M188.9,235.7h-51c-3.3,0-6,2.7-6,6s2.7,6,6,6h51c3.3,0,6-2.7,6-6S192.2,235.7,188.9,235.7z"/>
<path class="st0" d="M245.9,72.4h-157c-3.3,0-6,2.7-6,6v37c0,3.3,2.7,6,6,6s6-2.7,6-6v-31h12v39c0,3.3,2.7,6,6,6s6-2.7,6-6v-39h30.5
	v127.3h-19.5c-3.3,0-6,2.7-6,6s2.7,6,6,6h51c3.3,0,6-2.7,6-6s-2.7-6-6-6h-19.5V84.4h12v108.3c0,3.3,2.7,6,6,6s6-2.7,6-6V84.4h30.5
	v31c0,3.3,2.7,6,6,6s6-2.7,6-6v-31h12v39c0,3.3,2.7,6,6,6s6-2.7,6-6v-45C251.9,75.1,249.2,72.4,245.9,72.4z"/>
<path class="st0" d="M0,6v51c0,3.3,2.7,6,6,6s6-2.7,6-6V6c0-3.3-2.7-6-6-6S0,2.7,0,6z"/>
<rect y="7.8" class="st0" width="12" height="162.6"/>
<path class="st0" d="M0,121.3v51c0,3.3,2.7,6,6,6s6-2.7,6-6v-51c0-3.3-2.7-6-6-6S0,118,0,121.3z"/>
<rect x="6" y="166.3" class="st0" width="99" height="12"/>
<path class="st0" d="M60.5,178.3h51c3.3,0,6-2.7,6-6s-2.7-6-6-6h-51c-3.3,0-6,2.7-6,6S57.2,178.3,60.5,178.3z"/>
<path class="st0" d="M23.6,202.8h51c3.3,0,6-2.7,6-6s-2.7-6-6-6h-51c-3.3,0-6,2.7-6,6S20.3,202.8,23.6,202.8z"/>
<rect x="39.3" y="190.8" class="st0" width="58.2" height="12"/>
<path class="st0" d="M46.3,202.8h51c3.3,0,6-2.7,6-6s-2.7-6-6-6l0,0h-51c-3.3,0-6,2.7-6,6S42.9,202.8,46.3,202.8z"/>
<path class="st0" d="M24,29.5v51c0,3.3,2.7,6,6,6s6-2.7,6-6v-51c0-3.3-2.7-6-6-6S24,26.2,24,29.5z"/>
<rect x="24" y="52.5" class="st0" width="12" height="57.2"/>
<path class="st0" d="M24,92.7v51c0,3.3,2.7,6,6,6s6-2.7,6-6v-51c0-3.3-2.7-6-6-6S24,89.4,24,92.7z"/>
<title>icon</title>
</svg>
